PathFileType   4   (X/Y/Z)
DataRate	CameraRate	NumFrames	NumMarkers	Units	OrigDataRate	OrigDataStartFrame	OrigNumFrames
120.0	120.0	12	37	mm	120.0	160	182
Frame#	Time	midhip	hip_r	hip_l	knee_r	knee_l	ankle_r	ankle_l	midasis	asis_r	asis_l	psis_r	psis_l	epicondLat_r	epicondLat_l	epicondMed_r	epicondMed_l	malleolusLat_r	malleolusLat_l	malleolusMedv_r	malleolusMedv_l	neck	subclavicle_r	subclavicle_l	sternalnotch	xyphoidprocess	thighwand_r	thighwand_l	upperleg1_r	upperleg1_l	upperleg2_r	upperleg2_l	shankwand_r	shankwand_l	lowerleg1_r	lowerleg1_l	toe_r	toe_l
 	 	X1	Y1	Z1	X2	Y2	Z2	X3	Y3	Z3	X4	Y4	Z4	X5	Y5	Z5	X6	Y6	Z6	X7	Y7	Z7	X8	Y8	Z8	X9	Y9	Z9	X10	Y10	Z10	X11	Y11	Z11	X12	Y12	Z12	X13	Y13	Z13	X14	Y14	Z14	X15	Y15	Z15	X16	Y16	Z16	X17	Y17	Z17	X18	Y18	Z18	X19	Y19	Z19	X20	Y20	Z20	X21	Y21	Z21	X22	Y22	Z22	X23	Y23	Z23	X24	Y24	Z24	X25	Y25	Z25	X26	Y26	Z26	X27	Y27	Z27	X28	Y28	Z28	X29	Y29	Z29	X30	Y30	Z30	X31	Y31	Z31	X32	Y32	Z32	X33	Y33	Z33	X34	Y34	Z34	X35	Y35	Z35	X36	Y36	Z36	X37	Y37	Z37

	160	1.58333	-177.167	893.783	276.274	-171.699	876.813	327.061	-187.554	882.261	221.818	-209.080	471.455	317.323	-37.574	491.520	190.063	-340.838	72.465	315.987	49.970	81.485	190.417	-103.575	978.286	268.094	-88.055	972.953	371.111	-119.094	983.618	165.077	-297.714	999.061	333.665	-311.162	1000.929	248.338	-192.289	468.537	374.330	-39.470	495.613	130.734	-224.871	487.556	261.564	-51.566	481.856	237.207	-339.057	71.750	353.939	41.090	79.556	151.977	-341.568	76.607	283.757	52.716	96.061	218.710	-216.482	1458.020	301.900	-115.741	1377.750	369.290	-137.111	1384.582	214.692	-139.037	1383.538	289.835	-118.309	1180.467	271.180	-139.412	567.146	453.020	52.193	656.316	175.046	-129.061	630.516	383.295	-38.780	687.017	140.013	-140.418	550.823	356.737	-20.027	601.306	142.725	-292.967	136.306	419.109	119.343	217.928	179.367	-299.090	198.175	360.733	43.619	251.057	178.159	-219.783	42.435	302.159	173.829	84.011	183.477
	161	1.59167	-172.430	893.425	276.304	-167.322	876.254	326.743	-182.697	881.698	221.429	-206.629	471.038	317.207	-32.842	490.840	190.102	-340.694	72.751	316.148	58.903	81.765	191.126	-98.805	977.627	268.061	-83.752	972.297	371.175	-113.858	982.957	164.946	-293.341	998.724	332.942	-306.316	1000.481	247.345	-189.937	468.076	374.241	-34.372	495.009	130.768	-222.202	487.187	261.439	-47.399	481.042	237.073	-338.862	72.033	354.097	50.243	79.726	152.641	-341.376	76.894	283.912	61.314	96.374	219.392	-211.781	1457.477	300.866	-111.288	1377.255	368.576	-132.172	1383.911	213.956	-134.333	1382.957	289.069	-113.619	1179.857	270.716	-136.709	566.564	452.928	56.759	655.713	175.910	-126.069	629.903	383.170	-34.009	686.341	140.278	-137.647	550.268	356.668	-15.251	600.657	142.991	-292.301	136.339	419.211	126.971	218.942	180.358	-298.126	198.281	360.783	50.889	251.284	178.740	-219.777	42.415	302.200	182.819	85.269	184.895
	162	1.60000	-167.743	892.999	276.212	-162.956	875.695	326.431	-177.821	881.119	221.042	-204.161	470.625	317.103	-28.136	490.135	190.175	-340.531	73.058	316.327	67.275	81.927	191.846	-94.025	976.955	268.038	-79.466	971.642	371.254	-108.583	982.267	164.822	-288.931	998.380	332.154	-301.467	1000.042	246.326	-187.589	467.625	374.169	-29.276	494.383	130.838	-219.370	486.678	261.286	-43.042	480.235	237.056	-338.657	72.341	354.274	58.838	79.797	153.316	-341.142	77.219	284.079	69.414	96.552	220.088	-207.025	1456.903	299.826	-106.649	1376.770	367.843	-127.142	1383.263	213.146	-129.494	1382.383	288.263	-108.647	1179.274	270.165	-134.038	565.995	452.876	61.347	655.093	176.849	-123.172	629.251	383.099	-29.222	685.638	140.560	-134.850	549.667	356.629	-10.366	599.994	143.330	-291.642	136.401	419.341	134.211	219.743	181.380	-297.243	198.402	360.945	57.800	251.372	179.402	-219.771	42.381	302.255	191.240	86.306	186.340
	163	1.60833	-163.093	892.496	275.952	-158.573	875.134	326.098	-172.915	880.523	220.635	-201.659	470.217	317.010	-23.460	489.415	190.284	-340.327	73.405	316.525	75.072	81.958	192.578	-89.219	976.269	267.990	-75.171	970.990	371.289	-103.267	981.547	164.691	-284.471	998.010	331.256	-296.590	999.622	245.283	-185.233	467.188	374.117	-24.180	493.745	130.947	-216.527	486.260	261.032	-38.802	479.424	237.034	-338.424	72.693	354.471	66.855	79.754	154.005	-340.926	77.572	284.259	76.992	96.623	220.823	-202.185	1456.380	298.716	-102.027	1376.303	367.209	-121.879	1382.588	212.282	-124.542	1381.806	287.457	-103.583	1178.677	269.725	-131.396	565.453	452.865	65.966	654.449	177.867	-120.305	628.594	383.057	-24.342	684.963	140.914	-132.066	549.101	356.561	-5.463	599.318	143.719	-290.979	136.504	419.496	141.053	220.309	182.420	-296.367	198.510	361.156	64.378	251.375	180.047	-219.760	42.341	302.332	199.082	87.117	187.776
	164	1.61667	-158.502	891.858	275.503	-154.171	874.566	325.744	-167.981	879.909	220.208	-199.109	469.824	316.926	-18.807	488.687	190.427	-340.072	73.808	316.742	82.282	81.845	193.328	-84.388	975.568	267.918	-70.861	970.335	371.288	-97.915	980.800	164.548	-279.946	997.602	330.206	-291.656	999.221	244.214	-182.854	466.774	374.081	-19.077	493.101	131.091	-213.752	485.844	260.905	-34.434	478.544	236.948	-338.154	73.108	354.687	74.276	79.580	154.714	-340.689	77.983	284.461	84.030	96.538	221.570	-197.295	1455.885	297.586	-97.370	1375.796	366.590	-116.413	1381.810	211.413	-119.468	1381.161	286.642	-98.429	1177.999	269.385	-128.767	564.952	452.886	70.619	653.783	178.960	-117.365	627.998	383.009	-19.429	684.271	141.317	-129.299	548.518	356.549	-0.472	598.646	144.124	-290.312	136.657	419.664	147.486	220.626	183.466	-295.319	198.659	361.336	70.688	251.293	180.703	-219.738	42.302	302.429	206.334	87.686	189.171
	165	1.62500	-153.959	891.113	274.911	-149.766	874.001	325.389	-163.028	879.285	219.780	-196.504	469.455	316.850	-14.176	487.954	190.600	-339.753	74.276	316.978	88.886	81.579	194.097	-79.540	974.857	267.847	-66.547	969.680	371.304	-92.532	980.033	164.390	-275.362	997.180	329.033	-286.673	998.842	243.121	-180.436	466.391	374.057	-13.977	492.454	131.270	-211.207	485.385	261.004	-30.129	477.736	237.019	-337.836	73.594	354.924	81.074	79.265	155.446	-340.328	78.473	284.651	90.492	96.285	222.331	-192.398	1455.388	296.458	-92.612	1375.309	365.819	-111.065	1381.115	210.563	-114.407	1380.564	285.780	-93.265	1177.383	268.871	-126.136	564.498	452.926	75.306	653.102	180.112	-114.402	627.425	382.943	-14.485	683.591	141.747	-126.621	547.898	356.612	4.514	597.957	144.615	-289.643	136.865	419.842	153.501	220.683	184.500	-294.181	198.888	361.481	76.636	251.013	181.428	-219.696	42.271	302.542	212.976	87.982	190.497
	166	1.63333	-149.400	890.364	274.244	-145.355	873.445	325.033	-158.052	878.663	219.351	-193.823	469.117	316.776	-9.586	487.201	190.811	-339.375	74.807	317.231	94.873	81.155	194.883	-74.670	974.145	267.780	-62.228	969.032	371.348	-87.113	979.259	164.212	-270.735	996.772	327.791	-281.659	998.477	242.001	-177.959	466.046	374.040	-8.910	491.782	131.491	-208.533	485.048	261.036	-26.051	477.056	237.195	-337.479	74.151	355.178	87.230	78.801	156.201	-339.906	79.017	284.829	96.328	95.884	223.123	-187.422	1454.944	295.276	-87.887	1374.883	364.892	-105.828	1380.550	209.695	-109.417	1380.071	284.840	-88.296	1176.867	268.185	-123.495	564.089	452.965	80.031	652.410	181.294	-111.360	626.885	382.937	-9.401	682.977	142.206	-123.867	547.346	356.702	9.488	597.293	145.170	-288.978	137.130	420.031	159.084	220.465	185.502	-293.119	199.171	361.629	82.102	250.514	182.122	-219.634	42.256	302.673	218.996	87.967	191.742
	167	1.64167	-144.807	889.617	273.585	-140.935	872.904	324.667	-153.042	878.050	218.912	-191.044	468.816	316.704	-5.061	486.413	191.068	-338.972	75.398	317.491	100.234	80.564	195.682	-69.773	973.440	267.717	-57.902	968.394	371.414	-81.644	978.486	164.020	-266.066	996.395	326.501	-276.587	998.121	240.846	-175.404	465.747	374.030	-3.911	491.064	131.762	-205.499	484.788	260.887	-20.995	476.192	237.196	-337.111	74.774	355.440	92.730	78.177	156.975	-339.585	79.602	285.085	101.558	95.318	223.930	-182.369	1454.510	294.012	-83.136	1374.451	363.951	-100.528	1379.987	208.757	-104.382	1379.579	283.856	-83.332	1176.347	267.455	-120.836	563.725	452.997	84.798	651.707	182.476	-108.235	626.408	382.974	-4.323	682.332	142.672	-120.939	546.880	356.777	14.896	596.708	145.682	-288.321	137.457	420.228	164.230	219.969	186.461	-292.106	199.501	361.816	87.218	249.912	182.749	-219.553	42.261	302.821	224.386	87.621	192.907
	168	1.65000	-140.098	888.952	273.005	-136.487	872.390	324.286	-147.987	877.458	218.460	-188.167	468.552	316.633	-0.607	485.594	191.371	-338.566	76.044	317.745	104.954	79.804	196.489	-64.833	972.751	267.647	-53.550	967.779	371.480	-76.117	977.724	163.813	-261.353	996.068	325.186	-271.426	997.777	239.654	-172.773	465.494	374.026	1.002	490.297	132.079	-202.347	484.471	260.760	-15.310	475.238	237.208	-336.751	75.456	355.698	97.561	77.392	157.762	-339.368	80.220	285.384	106.202	94.565	224.739	-177.280	1454.054	292.710	-78.266	1374.057	363.063	-95.135	1379.462	207.803	-99.242	1379.116	282.890	-78.114	1175.873	266.730	-118.154	563.407	453.032	89.605	650.988	183.628	-105.078	625.982	382.960	0.754	681.650	143.142	-117.942	546.461	356.858	20.566	596.132	146.207	-287.674	137.849	420.429	168.946	219.205	187.374	-291.105	199.859	362.017	92.011	249.177	183.385	-219.457	42.282	302.978	229.136	86.925	193.996
	169	1.65833	-135.233	888.441	272.505	-131.984	871.921	323.891	-142.876	876.895	217.996	-185.208	468.320	316.560	3.794	484.759	191.714	-338.172	76.742	317.982	109.026	78.885	197.306	-59.834	972.095	267.551	-49.141	967.212	371.515	-70.526	976.978	163.587	-256.592	995.806	323.875	-266.188	997.459	238.434	-170.078	465.281	374.024	5.835	489.495	132.438	-198.995	484.126	260.640	-10.757	474.629	237.665	-336.407	76.190	355.937	101.720	76.457	158.564	-339.090	80.918	285.628	110.238	93.634	225.548	-172.115	1453.649	291.428	-73.292	1373.729	362.204	-89.845	1379.029	206.852	-94.104	1378.736	281.957	-72.969	1175.478	265.985	-115.445	563.133	453.077	94.454	650.250	184.720	-101.835	625.573	382.954	5.957	681.011	143.628	-114.827	546.091	356.993	25.758	595.479	146.872	-287.028	138.310	420.624	173.232	218.182	188.253	-290.049	200.268	362.174	96.385	248.243	184.042	-219.350	42.318	303.142	233.231	85.866	195.025
	170	1.66667	-129.804	888.595	272.031	-127.414	871.511	323.477	-137.701	876.370	217.516	-182.169	468.112	316.479	8.154	483.921	192.090	-337.791	77.496	318.189	112.451	77.820	198.134	-54.761	971.479	267.416	-44.656	966.706	371.496	-64.865	976.251	163.336	-251.780	995.627	322.596	-260.895	997.185	237.194	-167.322	465.099	374.018	10.593	488.667	132.830	-195.502	483.845	260.480	-6.946	474.282	238.489	-336.078	76.980	356.147	105.215	75.384	159.379	-338.677	81.702	285.869	113.678	92.568	226.350	-166.924	1453.269	290.127	-68.206	1373.457	361.366	-84.697	1378.667	205.856	-88.985	1378.418	281.033	-67.861	1175.149	265.196	-112.697	562.898	453.138	99.346	649.487	185.729	-98.515	625.189	383.034	11.249	680.366	144.115	-111.630	545.723	357.159	30.615	594.787	147.637	-286.369	138.842	420.810	177.091	216.909	189.116	-288.922	200.774	362.293	100.375	247.171	184.727	-219.230	42.367	303.315	236.670	84.433	196.016
	171	1.67500	-123.837	889.395	271.589	-122.763	871.164	323.041	-132.459	875.887	217.018	-179.048	467.923	316.391	12.486	483.095	192.492	-337.404	78.319	318.365	115.243	76.632	198.968	-49.604	970.904	267.233	-40.077	966.264	371.404	-59.131	975.544	163.063	-246.909	995.535	321.363	-255.542	996.967	235.942	-164.497	464.942	374.007	15.281	487.825	133.247	-192.175	483.697	260.352	-2.842	473.831	239.194	-335.744	77.837	356.325	108.069	74.201	160.201	-338.289	82.540	286.178	116.478	91.362	227.176	-161.712	1452.900	288.771	-63.102	1373.234	360.432	-79.216	1378.273	204.786	-83.688	1378.098	279.997	-62.370	1174.828	264.424	-109.892	562.704	453.212	104.269	648.687	186.629	-95.155	624.852	383.131	16.546	679.681	144.566	-108.482	545.359	357.299	35.584	594.056	148.323	-285.683	139.452	420.987	180.541	215.407	189.982	-287.771	201.364	362.437	103.989	245.995	185.438	-219.097	42.427	303.504	239.475	82.624	196.983
